<?xml version="1.0" standalone="no"?>
<!DOCTYPE svg PUBLIC "-//W3C//DTD SVG 20010904//EN"
 "http://www.w3.org/TR/2001/REC-SVG-20010904/DTD/svg10.dtd">
<svg version="1.0" xmlns="http://www.w3.org/2000/svg"
 width="744.000000pt" height="1052.000000pt" viewBox="0 0 744.000000 1052.000000"
 preserveAspectRatio="xMidYMid meet">

<g transform="translate(0.000000,1052.000000) scale(0.100000,-0.100000)"
fill="#2C3033" stroke="none">
<path d="M747 6232 c26 -31 220 -263 431 -515 l383 -457 -383 -457 c-211 -252
-405 -484 -431 -515 l-49 -58 204 1 203 0 425 510 c234 280 425 514 425 519 0
5 -191 239 -425 519 l-425 510 -203 0 -204 1 49 -58z"/>
<path d="M1811 6273 c8 -10 200 -240 427 -511 226 -271 412 -497 412 -502 0
-5 -186 -231 -412 -502 -227 -271 -419 -501 -427 -511 -13 -16 1 -17 236 -17
l249 0 425 508 c233 279 424 514 424 522 0 8 -191 243 -424 523 l-425 507
-249 0 c-235 0 -249 -1 -236 -17z"/>
<path d="M2902 6282 c1 -5 192 -235 423 -510 231 -276 420 -506 420 -512 0 -6
-189 -236 -420 -512 -231 -275 -422 -505 -423 -510 -2 -4 130 -7 294 -6 l299
3 427 510 c235 281 427 512 427 515 0 3 -192 235 -427 515 l-427 510 -299 3
c-164 1 -296 -2 -294 -6z"/>
<path d="M4007 6268 c11 -13 205 -245 432 -515 l411 -493 -411 -492 c-227
-271 -421 -503 -432 -515 l-20 -23 349 0 349 0 425 507 c233 279 424 515 424
523 0 8 -191 244 -424 523 l-425 507 -349 0 -349 0 20 -22z"/>
<path d="M5101 6273 c8 -10 198 -238 422 -506 225 -269 410 -494 413 -501 3
-7 -187 -242 -421 -522 l-426 -509 388 -3 c213 -1 393 0 399 2 10 4 857 1011
861 1024 1 4 -190 237 -426 517 l-427 510 -399 3 c-378 2 -397 1 -384 -15z"/>
</g>
</svg>
